# xmcd
#
# Track frame offsets:
#	151
#	12752
#	25808
#	43776
#	59224
#	71333
#	82924
#	97141
#	109188
#	118214
#
# Disc length: 1784 seconds
#
# Revision: 1
# Processed by: cddbd v1.5.1PL0 Copyright (c) Steve Scherf et al.
# Submitted via: EasyCDDAExtractor 7.0.6.1
#
DISCID=8606f60a
DTITLE=Various Artist - Cuba Social Club - Orquesta Casino de la Playa
DYEAR=1900
DGENRE=Blues
TTITLE0=Orq. Casino de la Playa - Mambo No.5
TTITLE1=Compay Segundo - Su señoria la conga
TTITLE2=Israel Kantor - Me llamo son
TTITLE3=Orq. Casino de la Playa - A romper el coco
TTITLE4=Celio González - Amor sin esperanza
TTITLE5=Sonora Matancera - El mambito sabrosito
TTITLE6=Los Guaracheros de Oriente - Veneración
TTITLE7=Fajardo y su Orquesta - Yo no camino más
TTITLE8=Orq. Casino de la Playa - Pasito tun tun
TTITLE9=Orq. Casino de la Playa - El amor de mi bohio
EXTD=
EXTT0=
EXTT1=
EXTT2=
EXTT3=
EXTT4=
EXTT5=
EXTT6=
EXTT7=
EXTT8=
EXTT9=
PLAYORDER=
